<svg xmlns="http://www.w3.org/2000/svg" viewBox="0 0 500 500"><g id="freepik--background-simple--inject-2"><path d="M420.86,120.59S320.34,50.23,199.71,54.53-4.93,287.17,15.9,318.05s117.75,122.78,226.89,139.3,222.59-101.24,234.8-147.92S503.44,188.09,420.86,120.59Z" style="fill:#32DE84"></path><path d="M420.86,120.59S320.34,50.23,199.71,54.53-4.93,287.17,15.9,318.05s117.75,122.78,226.89,139.3,222.59-101.24,234.8-147.92S503.44,188.09,420.86,120.59Z" style="fill:#fff;opacity:0.7000000000000001"></path></g><g id="freepik--Floor--inject-2"><line x1="21.54" y1="386.49" x2="487.54" y2="386.49" style="fill:none;stroke:#263238;stroke-linecap:round;stroke-linejoin:round"></line></g><g id="freepik--Mat--inject-2"><polygon points="480.36 434.63 25.5 434.63 77.99 396.54 427.88 396.54 480.36 434.63" style="fill:#32DE84;stroke:#263238;stroke-linecap:round;stroke-linejoin:round"></polygon></g><g id="freepik--Window--inject-2"><rect x="194.47" y="69.04" width="137.31" height="189.01" style="fill:#757575;stroke:#b2b2b2;stroke-linecap:round;stroke-linejoin:round"></rect><rect x="201.01" y="77.48" width="124.23" height="172.15" style="fill:#fff;stroke:#b2b2b2;stroke-linecap:round;stroke-linejoin:round"></rect><line x1="276.22" y1="104.13" x2="245.58" y2="134.76" style="fill:none;stroke:#b2b2b2;stroke-linecap:round;stroke-linejoin:round"></line><line x1="292.22" y1="88.13" x2="279.28" y2="101.06" style="fill:none;stroke:#b2b2b2;stroke-linecap:round;stroke-linejoin:round"></line><line x1="255.45" y1="114" x2="237.07" y2="132.38" style="fill:none;stroke:#b2b2b2;stroke-linecap:round;stroke-linejoin:round"></line><line x1="251.03" y1="234.85" x2="245.58" y2="240.29" style="fill:none;stroke:#b2b2b2;stroke-linecap:round;stroke-linejoin:round"></line><line x1="292.22" y1="193.66" x2="254.09" y2="231.78" style="fill:none;stroke:#b2b2b2;stroke-linecap:round;stroke-linejoin:round"></line><line x1="255.45" y1="219.53" x2="237.07" y2="237.91" style="fill:none;stroke:#b2b2b2;stroke-linecap:round;stroke-linejoin:round"></line><path d="M267.67,170.6a4.15,4.15,0,1,0-4.14,4.15A4.14,4.14,0,0,0,267.67,170.6Z" style="fill:#757575;stroke:#b2b2b2;stroke-linecap:round;stroke-linejoin:round"></path><rect x="201.01" y="170.01" width="124.23" height="7.62" style="fill:#757575;stroke:#b2b2b2;stroke-linecap:round;stroke-linejoin:round"></rect><rect x="191.24" y="57.74" width="144.58" height="16.15" style="fill:#757575;stroke:#b2b2b2;stroke-linecap:round;stroke-linejoin:round"></rect><rect x="191.24" y="252.4" width="144.58" height="16.15" style="fill:#757575;stroke:#b2b2b2;stroke-linecap:round;stroke-linejoin:round"></rect><rect x="139.54" y="35.12" width="247.17" height="4.85" style="fill:#fff;stroke:#b2b2b2;stroke-linecap:round;stroke-linejoin:round"></rect><rect x="148.43" y="31.08" width="13.73" height="255.24" rx="4.49" style="fill:#fff;stroke:#b2b2b2;stroke-linecap:round;stroke-linejoin:round"></rect><rect x="161.35" y="31.08" width="13.73" height="255.24" rx="4.49" style="fill:#fff;stroke:#b2b2b2;stroke-linecap:round;stroke-linejoin:round"></rect><rect x="174.27" y="31.08" width="13.73" height="255.24" rx="4.49" style="fill:#fff;stroke:#b2b2b2;stroke-linecap:round;stroke-linejoin:round"></rect><rect x="187.2" y="31.08" width="13.73" height="255.24" rx="4.49" style="fill:#fff;stroke:#b2b2b2;stroke-linecap:round;stroke-linejoin:round"></rect><rect x="326.13" y="31.08" width="13.73" height="255.24" rx="4.49" style="fill:#fff;stroke:#b2b2b2;stroke-linecap:round;stroke-linejoin:round"></rect><rect x="339.05" y="31.08" width="13.73" height="255.24" rx="4.49" style="fill:#fff;stroke:#b2b2b2;stroke-linecap:round;stroke-linejoin:round"></rect><rect x="351.97" y="31.08" width="13.73" height="255.24" rx="4.49" style="fill:#fff;stroke:#b2b2b2;stroke-linecap:round;stroke-linejoin:round"></rect><rect x="364.9" y="31.08" width="13.73" height="255.24" rx="4.49" style="fill:#fff;stroke:#b2b2b2;stroke-linecap:round;stroke-linejoin:round"></rect></g><g id="freepik--Plant--inject-2"><path d="M86.69,222.1h0a.08.08,0,1,0-.15-.07,109.31,109.31,0,0,0-5.75,18,168.23,168.23,0,0,0-3.17,18.68l-.45,4.73c-.07.79-.16,1.57-.21,2.36l-.13,2.37c-.07,1.58-.17,3.16-.21,4.74l0,4.75,0,2.37c0,.79.1,1.58.15,2.37.12,1.58.22,3.16.36,4.73.3,3.15.78,6.28,1.26,9.39a.09.09,0,0,0,.09.07.08.08,0,0,0,.08-.08h0c0-1.58-.08-3.15-.11-4.73s-.19-3.13-.16-4.71,0-3.14,0-4.71l0-2.35,0-2.35,0-4.71.13-4.7,0-2.35c0-.78.09-1.57.13-2.35l.29-4.7a167.08,167.08,0,0,1,2.66-18.63A109.79,109.79,0,0,1,86.69,222.1Z" style="fill:#263238"></path><path d="M87.37,246.7a.09.09,0,0,0-.06-.11.08.08,0,0,0-.1,0,109.65,109.65,0,0,0-5.33,24.22C81.47,275,81,279.1,81,283.24a102.89,102.89,0,0,0,.44,12.41.07.07,0,0,0,.07.07.09.09,0,0,0,.1-.07c.47-4.12.77-8.23,1-12.34s.33-8.23.6-12.33a123.36,123.36,0,0,1,4.16-24.28Z" style="fill:#263238"></path><path d="M101,255.35a.08.08,0,0,0-.11,0,41.38,41.38,0,0,0-9.12,7.95,36.73,36.73,0,0,0-3.57,5l-.73,1.38-.57,1.44a12.41,12.41,0,0,0-.5,1.45c-.15.49-.31,1-.45,1.47a58.62,58.62,0,0,0-1.88,12,69,69,0,0,0,.45,12.11.08.08,0,0,0,.08.07s.08,0,.09-.07l1-12a105.64,105.64,0,0,1,1.51-11.83c.11-.48.25-1,.37-1.43s.25-1,.42-1.41l.49-1.39.63-1.31a35.62,35.62,0,0,1,3.26-5,41.48,41.48,0,0,1,8.56-8.33h0A.09.09,0,0,0,101,255.35Z" style="fill:#263238"></path><path d="M94.4,270.75a13.2,13.2,0,0,0-4.14,5,29.64,29.64,0,0,0-2.33,6.1c-.16.52-.29,1.05-.4,1.59L87.15,285a27,27,0,0,0-.4,3.24c0,1.09,0,2.17,0,3.26a29.42,29.42,0,0,0,.42,3.23.1.1,0,0,0,.07.07.08.08,0,0,0,.1-.07,28,28,0,0,0,.57-3.18c.17-1.06.34-2.11.46-3.16s.3-2.09.38-3.14.22-2.1.45-3.13A27.66,27.66,0,0,1,91,276.09a13.22,13.22,0,0,1,3.48-5.19v0a.08.08,0,0,0,0-.1A.1.1,0,0,0,94.4,270.75Z" style="fill:#263238"></path><path d="M75.28,282.76c-.45-5.32-1.33-10.59-2.16-15.86s-1.75-10.52-2.71-15.76-2-10.46-3.17-15.67a.08.08,0,0,0-.1-.06.07.07,0,0,0-.06.09c.91,5.25,1.73,10.51,2.51,15.78s1.55,10.53,2.22,15.81,1.16,10.58,1.82,15.85l1.94,15.84a.11.11,0,0,0,.08.08.09.09,0,0,0,.09-.08c.06-1.34.06-2.67.1-4s-.06-2.67-.08-4C75.71,288.09,75.48,285.43,75.28,282.76Z" style="fill:#263238"></path><path d="M72.09,282.69c-.29-2.11-.67-4.21-1.08-6.3l-.74-3.11c-.25-1-.48-2.07-.78-3.09a88.8,88.8,0,0,0-4.07-12.11l-.64-1.46-.71-1.43c-.45-1-1-1.89-1.51-2.82a23.84,23.84,0,0,0-3.85-5.09.08.08,0,0,0-.11,0,.09.09,0,0,0,0,.12h0a23.7,23.7,0,0,1,3.51,5.21c.46.95,1,1.88,1.35,2.86l.62,1.45.56,1.48a86.4,86.4,0,0,1,3.54,12.1c.49,2.05.81,4.14,1.21,6.2l.5,3.12c.18,1,.4,2.07.55,3.11.33,2.09.71,4.16,1.07,6.24s.71,4.18,1.15,6.26a.08.08,0,0,0,.08.07.08.08,0,0,0,.08-.08q0-3.19-.15-6.38C72.56,286.92,72.31,284.8,72.09,282.69Z" style="fill:#263238"></path><path d="M67.68,283c-1-2.79-2.12-5.53-3.37-8.21A71.21,71.21,0,0,0,60.07,267a.08.08,0,0,0-.11,0,.09.09,0,0,0,0,.12,71.12,71.12,0,0,1,3.62,8c1.08,2.72,2,5.49,2.87,8.29s1.43,5.66,2.17,8.48,1.42,5.66,2.29,8.51a.09.09,0,0,0,.08.06.09.09,0,0,0,.08-.08,42.42,42.42,0,0,0-.82-8.86A56,56,0,0,0,67.68,283Z" style="fill:#263238"></path><path d="M67.5,292.26a18.78,18.78,0,0,0-2.34-4.91,20.54,20.54,0,0,0-3.41-4.24,15.64,15.64,0,0,0-2.17-1.64,8.94,8.94,0,0,0-2.46-1.11.09.09,0,0,0-.1.05.08.08,0,0,0,0,.11h0a12.19,12.19,0,0,1,4.08,3.17A19.3,19.3,0,0,1,64,288c.81,1.53,1.22,3.22,1.93,4.79.31.81.61,1.62,1,2.43A21.82,21.82,0,0,0,68,297.68h0a.1.1,0,0,0,.08.05.11.11,0,0,0,.09-.08,20.55,20.55,0,0,0-.11-2.72C67.9,294,67.71,293.14,67.5,292.26Z" style="fill:#263238"></path><path d="M67.83,243.09a15.16,15.16,0,0,1-10.74-11.41c-2-9.39,4.48-5.36-1.34-20.12s-4.47-18.12-2.46-22.37,3.13-2.91,4.92,2.68S66.49,206.19,69,222.52,67.83,243.09,67.83,243.09Z" style="fill:#32DE84"></path><path d="M85.05,227.21s-5.81-2-6-13,4.25-8.72,4.92-22.37,1.57-23.25,4-23.48,8.94,6.71,11.18,21.92-2.91,25.27-7.38,29.74S85.05,227.21,85.05,227.21Z" style="fill:#32DE84"></path><path d="M64.7,256.29s-1.34-8.06-4-11.86-8.5-7.15-12.3-14.53-8-11-7.83-.45,4.92,15.88,10.74,19.46S64.7,256.29,64.7,256.29Z" style="fill:#32DE84"></path><path d="M62.24,270.15S56.87,259.86,49,252.26,35,240.85,37.19,244.66s4.92,3.57,8.72,10.28S48.6,266.57,54,270.38,62.24,270.15,62.24,270.15Z" style="fill:#32DE84"></path><path d="M61.57,283.35c-.23-.67-.45-5.59-8-9.62s-14.76-2.46-13.87-.45,5.59,5.37,10.29,7.38S61.57,283.35,61.57,283.35Z" style="fill:#32DE84"></path><path d="M84.6,256.73s-3.35-4.25-1.56-13.19,5.81-6.71,10.29-11.41,3.57-5.37,8-10.29,8.5-7.6,10.29-5.59-.9,8.28-3.58,11.86-6.94,5.36-9,9.84-1.12,11.63-6.26,15S84.6,256.73,84.6,256.73Z" style="fill:#32DE84"></path><path d="M95.79,259.19s8-9.17,13.86-15.88,8-11.85,8.28-7.38,2,8.06-2.69,13.87S95.79,259.19,95.79,259.19Z" style="fill:#32DE84"></path><path d="M91.54,274s-.23-3.57,12.52-11.85,18.12-9.84,16.78-6.48-6.94,6.71-13,12.74S91.54,274,91.54,274Z" style="fill:#32DE84"></path><path d="M68.36,242.14s-3-16-6.12-27.45-5.15-18.34-5.15-18.34" style="fill:none;stroke:#263238;stroke-linecap:round;stroke-linejoin:round"></path><path d="M84.54,227.38S90,210,91.76,199.48s-.22-18.34-1.12-23" style="fill:none;stroke:#263238;stroke-linecap:round;stroke-linejoin:round"></path><path d="M64,256a84,84,0,0,0-8.24-11.74c-4.92-5.82-8.72-9-11-14.54" style="fill:none;stroke:#263238;stroke-linecap:round;stroke-linejoin:round"></path><path d="M84.6,256.73s1.79-10.73,6-16.32,12.75-14.32,16.11-19.91" style="fill:none;stroke:#263238;stroke-linecap:round;stroke-linejoin:round"></path><path d="M61,283.1s-7.52-4.9-12.89-7.58" style="fill:none;stroke:#263238;stroke-linecap:round;stroke-linejoin:round"></path><path d="M104.13,328.18c-.5-13.57-15.58-22.62-15.58-22.62H65.44s-15.08,9.05-15.58,22.62S67,391.52,67,391.52H87S104.64,341.75,104.13,328.18Z" style="fill:#263238;stroke:#263238;stroke-linecap:round;stroke-linejoin:round"></path><polygon points="91.53 292.22 62.04 292.22 65.44 305.56 88.13 305.56 91.53 292.22" style="fill:#263238;stroke:#263238;stroke-linecap:round;stroke-linejoin:round"></polygon></g><g id="freepik--Character--inject-2"><path d="M286.32,252.91l10.25,17,21.25,29.5-11.25,4-24.75-26s-2.25-6.75-1.25-12.5S286.32,252.91,286.32,252.91Z" style="fill:#fff;stroke:#263238;stroke-linecap:round;stroke-linejoin:round"></path><path d="M295.32,271.16s-5,6.75-10,8" style="fill:none;stroke:#263238;stroke-linecap:round;stroke-linejoin:round"></path><path d="M291.61,165.31s3.69,7.1,3.69,9.81-1.15,8.36,0,9.94,3.17,3.85,3,4.76-4.08,3.17-4.08,3.17-1.64,12.63-3.9,13.53a39.83,39.83,0,0,1-6.34,1.59s-6.72,1-8.83,7.47c-1,3.08,0,11.55,2.26,14.94s11.55,16.31,12.23,24.69-5.66,14.26-6.57,15.39,1.81,18.34.45,25.82-2.26,10.64-2.26,10.64l-47.78-2.49s5.66-5.44,7-17.66-.9-24.91-.9-36.91,3.17-22.87,7.24-29,8.15-10.18,9.74-17-1.13-7.47-1.13-7.47-8.61-6.57-4.3-21.06S274.17,154.22,291.61,165.31Z" style="fill:#fff;stroke:#263238;stroke-linecap:round;stroke-linejoin:round"></path><path d="M269.64,184.11s2.49-1.81,11.32-8.38,14.5-11.55,12.68-15.4-21.28-8.6-33.51-4.75-15.39,10.87-16.3,19.7,4.53,21.28,7.47,24,6.12,1.36,10.19-1.81S266,186.82,266,186.82Z" style="fill:#263238;stroke:#263238;stroke-linecap:round;stroke-linejoin:round"></path><path d="M272.59,185.92s-2.95-9.51-7.25-6.79-1.36,12.45.23,13.35,4.3-1.13,4.3-1.13-1.05,10.57,4.05,12.12" style="fill:#fff;stroke:#263238;stroke-linecap:round;stroke-linejoin:round"></path><path d="M292.11,183.71c0,1.12-.51,2-1.13,2s-1.13-.91-1.13-2,.5-2,1.13-2S292.11,182.58,292.11,183.71Z" style="fill:#263238"></path><path d="M288.49,179.4s1.36-2.26,4.53-.68" style="fill:#fff;stroke:#263238;stroke-linecap:round;stroke-linejoin:round"></path><path d="M286.45,194.8s1.59,1.81,6.34,1.81" style="fill:#fff;stroke:#263238;stroke-linecap:round;stroke-linejoin:round"></path><path d="M289.57,255.21c-.35-4.25-2.89-9.64-5.62-14.38a1.94,1.94,0,0,1-2.13.08c-3.75-2-11-17.75-21-20-8-1.79-15.28,5.29-17.94,8.25A64.55,64.55,0,0,0,239.53,250c0,8.27,1.07,16.87,1.3,25.41H283c-.18-2.61-.25-4.46,0-4.81C283.91,269.47,290.25,263.58,289.57,255.21Z" style="fill:#32DE84;stroke:#263238;stroke-linecap:round;stroke-linejoin:round"></path><path d="M247.23,190.45s-3.85-6.57-10.87-3.85-9.29,14.49-6.12,17.66,12.91,5.21,16.08,2.94,4.76-7,3.85-11.09S247.23,190.45,247.23,190.45Z" style="fill:#263238;stroke:#263238;stroke-linecap:round;stroke-linejoin:round"></path><path d="M276.57,273.91s-1.5-23-4-32.75-8.75-16.25-14.25-17.25-11.5,7-12,15-2.25,18,0,21.5a16.54,16.54,0,0,0,4.75,5s7.75,24,10,25,42.25,15.75,44.25,16.25,5.75,1,7.75.5,11.25-.25,13.5-.25,5,.75,5.75-.5-4.25-7.5-7.75-7.75-13.75,1.75-15.75,1.75-23.25-20.25-25.75-22.25A59.58,59.58,0,0,0,276.57,273.91Z" style="fill:#fff;stroke:#263238;stroke-linecap:round;stroke-linejoin:round"></path><line x1="251.07" y1="265.41" x2="247.32" y2="245.41" style="fill:#fff;stroke:#263238;stroke-linecap:round;stroke-linejoin:round"></line><path d="M315.41,299.47s4.68-5.45,6.88-4.16,3.12,5.07,1.3,6.24-3.89-3-3.89-3Z" style="fill:#fff;stroke:#263238;stroke-linecap:round;stroke-linejoin:round"></path><path d="M322.29,295.31s3.12-.77,4.16.52,1.82,4.68.26,5.85-2.08-1.17-2.08-1.17A6.56,6.56,0,0,0,322.29,295.31Z" style="fill:#fff;stroke:#263238;stroke-linecap:round;stroke-linejoin:round"></path><path d="M327,296.09s3.5-.26,3.76,1-.39,7-1.81,7-1.56-4.28-1.56-4.28S327.23,297.52,327,296.09Z" style="fill:#fff;stroke:#263238;stroke-linecap:round;stroke-linejoin:round"></path><path d="M331,297.65s3.25.39,3.12,3.12-2.34,6.1-3,5.45-.91-4.41-.91-4.41Z" style="fill:#fff;stroke:#263238;stroke-linecap:round;stroke-linejoin:round"></path><path d="M238.57,296.91s-4.5,4.25-13.5,15.5-3.75,32.75-3.75,32.75-9,18.5-12.5,27.5-5.5,15.25-5.5,15.25-15.75-5.25-26-3-25.25,6.75-31.25,6.75h-7.75s-6.5-10.75-10.75-9-10.5,11.75-10.5,11.75-12.5,8.75-15.75,10.5.5,3,4.25,3,21.75-2.25,26.5-3.5,29.25,3.5,39.25,3.75,32.75,0,40.25-.75,10.5,1.5,14.25-2,22-29.5,25.75-37.5a162.93,162.93,0,0,1,7.75-14.5,72.42,72.42,0,0,0,28.5-9.25c14-8.25,26.5-17.5,26.5-17.5s-1.75,16.5,2.25,24.5,7.75,37,8.75,43.25-1.25,20.75,1,22.25,39,0,39,0a4.06,4.06,0,0,0,3.75-1.25c1.5-1.75-1-3.25-4-3.75s-14-6-17.75-9-7.5-7.25-8-9.5,0-31.75.25-34.75,2-32.75-.75-42.75-15.25-12.5-20.5-13.25-37.13,4.65-37.13,4.65l1.13-4.65S269.57,295.16,238.57,296.91Z" style="fill:#fff;stroke:#263238;stroke-linecap:round;stroke-linejoin:round"></path><polygon points="314.32 326.66 319.09 320.24 314.09 335.25 314.32 326.66" style="fill:#263238;stroke:#263238;stroke-linecap:round;stroke-linejoin:round"></polygon><path d="M238.57,296.91s-4.5,4.25-13.5,15.5-3.75,32.75-3.75,32.75-2.55,5.25-5.46,11.51C227.32,367,242,369.75,250.24,370.45c.55-1,1-1.83,1.33-2.54a162.93,162.93,0,0,1,7.75-14.5A66.54,66.54,0,0,0,271.77,351a30,30,0,0,1-5.2-17.82,59.22,59.22,0,0,1,6.75-24.5l7.87-1.6,1.13-4.65S269.57,295.16,238.57,296.91Z" style="fill:#263238;stroke:#263238;stroke-linecap:round;stroke-linejoin:round"></path><path d="M250.38,351.87c-5.65-1.67-13.59-5.42-17.81-13.71" style="fill:none;stroke:#fff;stroke-linecap:round;stroke-linejoin:round"></path><path d="M256.82,353.16a24.37,24.37,0,0,1-2.8-.41" style="fill:none;stroke:#fff;stroke-linecap:round;stroke-linejoin:round"></path><path d="M270.57,309.41s-5.75-.5-14,2.5" style="fill:none;stroke:#fff;stroke-linecap:round;stroke-linejoin:round"></path></g></svg>
